<?xml version="1.0" encoding="UTF-8" standalone="no"?>
<svg xmlns="http://www.w3.org/2000/svg" width="136.867" height="97.079" version="1">
  <g fill="#fdcc12">
    <path d="M21.099 48.565c0 26.104 21.236 47.342 47.338 47.342 26.104 0 47.342-21.237 47.342-47.342 0-26.103-21.238-47.339-47.342-47.339-26.102 0-47.338 21.237-47.338 47.339zm3.802 0c0-24.006 19.53-43.536 43.536-43.536 24.007 0 43.539 19.53 43.539 43.536 0 24.007-19.532 43.539-43.539 43.539-24.005 0-43.536-19.532-43.536-43.539z"/>
    <path d="M105.734 10.882c20.657 20.659 20.657 54.274 0 74.933l3.227 3.227c22.436-22.438 22.436-58.947 0-81.385zM27.899 89.314l3.227-3.226c-20.659-20.66-20.66-54.274-.002-74.934l-3.226-3.226c-22.437 22.44-22.437 58.949.001 81.386z"/>
    <path d="M113.039 3.763c24.613 24.613 24.613 64.662 0 89.274l3.764 3.765c12.94-12.938 20.064-30.128 20.064-48.401 0-18.273-7.124-35.463-20.064-48.401zM20.016 97.079l3.764-3.765C-.832 68.7-.832 28.652 23.78 4.04L20.016.275c-26.688 26.688-26.688 70.113 0 96.804zM92.558 28.835c1.595 2.627 2.678 5.604 3.251 8.926a17.769 17.769 0 0 1-5.112.772c-2.862 0-5.869-.758-9.023-2.276v-.628c0-2.949-4.413-4.425-13.233-4.425-9.118 0-13.676 1.474-13.676 4.422v.628c-3.017 1.729-5.996 2.593-8.934 2.593-1.744 0-3.477-.321-5.201-.968a27.63 27.63 0 0 1 3.266-9.044 63.919 63.919 0 0 1 11.636-3.099c4.031-.683 8.214-1.024 12.549-1.024 4.491 0 8.776.342 12.856 1.024 4.079.682 7.953 1.714 11.621 3.099zm-37.794 9.094v1.074c0 2.323-.682 4.012-2.043 5.067-1.362 1.055-3.541 1.582-6.538 1.582-2.156 0-3.62-.352-4.394-1.056-.774-.703-1.16-2.04-1.16-4.008v-1.245c1.978.646 3.771.969 5.378.969 3.017.001 5.935-.793 8.757-2.383zm9.005 1.651h8.9v-3.979h6.492v5.502l7.722 12.419c1.129 1.809 1.87 3.288 2.222 4.438.351 1.151.527 2.67.527 4.558v6.902H46.807v-6.902c0-2.93.976-5.968 2.925-9.114l7.545-12.301v-5.502h6.492zM60 44.292v2.617h3.665v-2.617zm0 4.397v2.618h3.665v-2.618zm0 4.398V55.6h3.665v-2.513zm6.177-8.795v2.617h3.665v-2.617zm0 4.397v2.618h3.665v-2.618zm0 4.398V55.6h3.665v-2.513zm6.178-8.795v2.617h3.664v-2.617zm0 4.397v2.618h3.664v-2.618zm0 4.398V55.6h3.664v-2.513zm23.454-13.861v1.397c0 1.805-.388 3.041-1.162 3.71-.774.671-2.208 1.005-4.304 1.005-2.938 0-5.119-.516-6.54-1.546-1.42-1.031-2.13-2.616-2.13-4.756v-1.313c2.781 1.518 5.78 2.275 8.993 2.275 1.841.001 3.556-.256 5.143-.772z"/>
  </g>
</svg>
